<?xml version="1.0" encoding="UTF-8"?> <svg xmlns="http://www.w3.org/2000/svg" width="886pt" height="268pt" viewBox="0 0 886 268" version="1.1"><g id="#ffffffff"><path fill="#ffffff" opacity="1.00" d=" M 599.92 171.84 C 606.35 170.21 612.95 169.20 619.27 167.12 C 619.13 171.86 619.21 176.82 617.15 181.21 C 613.28 187.80 604.57 190.64 597.38 188.55 C 592.86 186.97 590.23 181.54 592.14 177.08 C 593.77 174.26 596.81 172.57 599.92 171.84 Z"></path></g><g id="#015190ff"><path fill="#015190" opacity="1.00" d=" M 26.43 30.49 C 39.64 15.81 59.16 6.96 78.94 6.97 C 84.90 6.97 90.85 6.90 96.81 7.08 C 72.58 35.95 62.51 76.24 70.96 113.04 C 73.40 124.52 77.79 135.48 83.21 145.86 C 95.59 146.06 107.98 145.95 120.36 145.93 C 106.33 120.69 101.62 90.40 107.45 62.11 C 111.35 41.95 120.84 23.22 133.52 7.18 C 151.02 6.70 168.55 7.11 186.06 6.97 C 204.01 6.74 221.86 13.74 235.02 25.91 C 247.43 37.27 255.70 53.11 257.66 69.84 C 258.10 75.53 258.48 81.24 258.36 86.95 C 258.33 115.64 258.36 144.34 258.35 173.03 C 258.38 182.88 258.53 192.86 256.23 202.51 C 252.08 219.83 241.17 235.38 226.35 245.25 C 214.53 253.24 200.25 257.49 186.00 257.40 C 178.99 257.36 171.98 257.44 164.97 257.30 C 183.48 238.73 195.75 214.08 199.56 188.15 C 201.85 173.42 201.15 158.35 198.10 143.79 C 185.80 143.85 173.50 143.88 161.20 143.76 C 166.08 167.03 164.44 191.72 155.85 213.94 C 149.65 230.12 140.11 245.02 127.92 257.34 C 110.97 257.41 94.01 257.40 77.05 257.36 C 57.85 256.77 39.08 248.03 26.31 233.68 C 14.19 220.55 7.64 202.75 7.69 184.93 C 7.62 149.62 7.60 114.31 7.71 79.00 C 7.75 61.25 14.35 43.56 26.43 30.49 Z"></path><path fill="#015190" opacity="1.00" d=" M 511.17 114.81 C 511.39 111.50 513.40 107.99 516.85 107.27 C 519.67 106.46 522.49 107.59 525.02 108.77 C 526.56 111.60 527.49 114.73 527.37 117.98 C 527.35 141.96 527.36 165.94 527.36 189.92 C 527.20 192.73 527.14 195.90 525.14 198.12 C 522.23 201.77 515.80 201.70 512.99 197.96 C 511.17 195.79 511.12 192.82 510.62 190.17 C 505.65 196.37 498.10 200.64 490.06 200.74 C 481.72 201.25 473.39 197.21 468.44 190.52 C 462.57 183.07 460.80 173.25 461.15 163.97 C 461.10 154.18 464.37 143.64 472.42 137.51 C 478.58 132.29 487.21 131.44 494.93 132.54 C 501.17 133.43 506.62 137.19 510.77 141.80 C 511.34 132.81 510.60 123.79 511.17 114.81 M 491.25 145.25 C 487.43 146.11 483.94 148.55 481.96 151.94 C 478.26 157.86 477.86 165.23 478.77 171.98 C 479.70 177.38 482.36 183.03 487.44 185.64 C 492.56 188.41 499.40 187.72 503.71 183.76 C 507.66 180.35 509.32 175.08 509.89 170.05 C 510.54 163.61 509.65 156.66 505.75 151.31 C 502.63 146.74 496.72 144.06 491.25 145.25 Z"></path><path fill="#015190" opacity="1.00" d=" M 549.35 108.28 C 551.86 107.32 554.76 107.70 557.11 108.94 C 562.44 111.87 562.23 121.04 556.75 123.71 C 552.26 125.95 545.38 124.17 544.02 118.94 C 542.57 114.68 544.99 109.59 549.35 108.28 Z"></path><path fill="#015190" opacity="1.00" d=" M 277.80 139.02 C 277.99 132.54 286.60 129.77 291.10 133.89 C 293.48 135.67 293.80 138.78 294.39 141.47 C 301.06 132.96 313.16 129.88 323.21 133.65 C 327.29 135.03 330.06 138.52 332.68 141.74 C 336.56 137.70 341.07 133.85 346.74 132.73 C 354.56 131.15 363.79 132.44 369.36 138.65 C 373.27 142.70 373.96 148.65 374.01 154.03 C 374.04 166.02 373.98 178.02 374.05 190.02 C 374.04 192.54 373.83 195.22 372.39 197.39 C 369.32 201.57 362.28 202.00 358.84 198.05 C 356.94 196.28 356.51 193.53 356.41 191.06 C 356.26 179.38 356.68 167.68 356.18 156.01 C 355.95 152.29 355.11 147.39 350.95 146.15 C 343.97 143.54 336.44 149.50 335.61 156.49 C 333.85 168.71 335.49 181.12 334.59 193.39 C 334.11 199.61 326.26 202.76 321.25 199.52 C 318.27 197.82 317.13 194.33 317.18 191.07 C 317.12 180.72 317.21 170.37 317.16 160.02 C 317.05 156.42 316.97 152.70 315.52 149.34 C 314.39 146.83 311.60 145.55 308.96 145.59 C 305.17 145.53 300.70 146.36 298.59 149.87 C 296.12 154.11 295.67 159.15 295.40 163.95 C 295.28 172.32 295.41 180.68 295.37 189.05 C 295.32 192.40 294.93 196.06 292.48 198.58 C 289.04 201.64 283.10 201.56 280.01 198.03 C 277.47 195.35 277.61 191.38 277.61 187.94 C 277.79 171.64 277.38 155.31 277.80 139.02 Z"></path><path fill="#015190" opacity="1.00" d=" M 399.12 138.18 C 406.19 132.87 415.40 131.33 424.05 132.08 C 434.08 132.70 443.87 138.67 448.29 147.82 C 451.16 154.07 452.86 161.87 449.18 168.16 C 445.99 169.60 442.57 170.70 439.03 170.62 C 427.51 170.62 416.00 170.61 404.48 170.62 C 404.79 175.76 406.15 181.23 410.09 184.84 C 414.60 189.49 422.02 190.26 427.86 187.91 C 433.07 185.82 436.70 181.37 441.05 178.02 C 443.65 176.21 446.80 177.66 449.35 178.76 C 452.11 184.72 447.72 190.64 443.14 194.16 C 433.94 201.06 421.53 201.98 410.60 199.58 C 402.87 197.90 395.92 193.00 391.85 186.21 C 387.36 179.01 386.53 170.21 387.14 161.92 C 387.85 152.89 391.73 143.72 399.12 138.18 M 410.44 147.38 C 406.52 150.60 405.21 155.79 404.50 160.59 C 414.53 160.63 424.57 160.62 434.61 160.62 C 434.19 157.32 433.55 153.98 431.91 151.04 C 428.12 143.42 416.59 141.62 410.44 147.38 Z"></path><path fill="#015190" opacity="1.00" d=" M 549.42 132.40 C 554.57 130.43 560.81 134.39 560.79 140.01 C 560.79 157.70 560.97 175.41 560.70 193.10 C 560.64 199.41 552.71 202.83 547.68 199.52 C 544.11 197.32 543.65 192.77 543.63 188.97 C 543.69 173.31 543.60 157.64 543.68 141.98 C 543.68 138.08 545.20 133.48 549.42 132.40 Z"></path><path fill="#015190" opacity="1.00" d=" M 589.13 135.05 C 596.62 131.68 605.04 131.71 613.09 132.13 C 618.86 132.58 624.96 133.71 629.52 137.53 C 633.99 141.28 635.40 147.35 635.88 152.90 C 636.29 161.96 635.67 171.03 636.13 180.08 C 636.46 185.72 639.97 190.92 638.70 196.67 C 636.26 199.25 632.79 201.81 629.04 200.44 C 625.05 198.90 622.76 194.95 620.54 191.54 C 611.97 198.31 600.79 202.60 589.82 200.09 C 581.99 198.70 575.26 192.07 574.35 184.09 C 573.43 177.57 576.18 170.55 581.71 166.83 C 587.07 163.08 593.75 162.50 599.96 161.15 C 606.37 159.88 612.68 158.18 619.03 156.62 C 618.96 152.41 618.26 147.02 613.86 145.13 C 608.83 143.33 603.09 143.69 598.10 145.45 C 593.48 147.66 591.13 152.50 588.32 156.51 C 585.41 156.93 582.03 157.51 579.57 155.44 C 576.70 153.23 576.78 149.07 577.99 145.99 C 579.66 140.77 584.29 137.19 589.13 135.05 M 599.92 171.84 C 596.81 172.57 593.77 174.26 592.14 177.08 C 590.23 181.54 592.86 186.97 597.38 188.55 C 604.57 190.64 613.28 187.80 617.15 181.21 C 619.21 176.82 619.13 171.86 619.27 167.12 C 612.95 169.20 606.35 170.21 599.92 171.84 Z"></path></g><g id="#607b86ff"><path fill="#607b86" opacity="1.00" d=" M 803.72 112.84 C 807.88 107.80 814.96 107.25 821.02 107.04 C 825.92 107.09 831.61 107.03 835.46 110.55 C 837.82 113.08 836.48 116.60 835.19 119.29 C 829.86 121.47 824.02 118.07 818.78 120.76 C 816.93 124.71 816.89 129.07 816.99 133.34 C 820.69 133.48 824.61 133.17 828.04 134.85 C 831.60 136.65 831.55 142.20 828.73 144.65 C 825.08 146.29 820.92 145.89 817.03 146.09 C 817.00 160.41 817.03 174.72 817.03 189.04 C 817.02 192.67 816.68 197.00 813.39 199.25 C 808.44 202.91 800.02 199.52 800.09 193.00 C 799.80 177.38 800.10 161.74 799.95 146.11 C 796.13 146.11 792.22 146.03 788.71 144.37 C 787.53 141.45 786.44 137.62 789.24 135.22 C 792.34 133.07 796.39 133.55 799.97 133.31 C 800.09 126.43 799.11 118.59 803.72 112.84 Z"></path><path fill="#607b86" opacity="1.00" d=" M 846.99 109.92 C 851.50 107.65 857.60 110.56 858.56 115.56 C 859.53 121.43 858.79 127.43 859.02 133.36 C 862.29 133.49 865.68 133.10 868.84 134.16 C 872.71 135.46 873.90 141.23 870.97 144.00 C 867.45 146.29 863.03 145.89 859.03 146.12 C 859.00 156.74 859.03 167.37 858.99 177.99 C 858.92 181.10 859.59 184.18 860.94 186.98 C 865.30 187.86 869.59 186.10 873.94 186.50 C 878.33 187.77 879.35 194.06 875.99 196.95 C 871.77 200.25 866.10 200.58 860.95 200.74 C 855.72 200.68 849.82 200.04 846.00 196.05 C 842.35 191.98 842.22 186.16 842.00 181.00 C 841.95 169.41 842.00 157.82 841.98 146.22 C 839.07 145.76 835.31 146.27 833.46 143.45 C 831.20 140.74 832.09 135.96 835.35 134.46 C 837.47 133.64 839.77 133.47 842.02 133.15 C 842.04 128.08 841.81 122.99 842.07 117.92 C 842.20 114.69 843.67 111.02 846.99 109.92 Z"></path><path fill="#607b86" opacity="1.00" d=" M 665.37 133.45 C 671.38 131.76 677.75 131.73 683.90 132.56 C 690.51 133.57 697.39 136.00 701.67 141.41 C 703.81 144.24 705.01 148.59 702.69 151.66 C 700.71 154.73 696.30 154.79 693.18 153.79 C 689.27 151.53 687.25 147.09 683.46 144.68 C 677.35 141.55 667.84 142.58 665.31 149.88 C 666.47 152.19 668.00 154.52 670.60 155.38 C 680.93 159.53 693.09 159.74 701.93 167.18 C 710.54 174.37 708.06 189.28 699.28 195.26 C 691.91 200.32 682.53 200.98 673.86 200.60 C 666.73 200.10 659.36 197.93 654.01 192.99 C 650.86 189.73 648.53 185.10 649.42 180.47 C 650.69 175.92 656.72 174.25 660.53 176.74 C 662.33 178.60 663.46 180.98 665.05 183.01 C 669.90 190.16 680.90 191.44 687.86 186.84 C 692.01 184.21 690.85 177.40 686.52 175.61 C 676.30 170.75 663.69 170.94 654.93 163.08 C 649.83 158.82 648.76 151.20 651.25 145.24 C 653.61 139.25 659.35 135.20 665.37 133.45 Z"></path><path fill="#607b86" opacity="1.00" d=" M 743.45 132.61 C 752.61 131.18 762.61 132.26 770.44 137.57 C 778.09 142.38 782.63 151.06 783.84 159.85 C 785.50 170.82 783.13 183.01 775.26 191.20 C 766.18 200.80 751.33 202.55 739.09 199.07 C 728.22 195.96 719.90 186.25 717.88 175.20 C 716.22 165.22 716.98 154.22 722.73 145.59 C 727.37 138.54 735.20 134.01 743.45 132.61 M 747.16 145.20 C 740.63 146.55 736.20 152.61 735.07 158.92 C 733.62 166.47 733.88 175.04 738.31 181.60 C 743.05 188.68 753.97 189.92 760.37 184.45 C 765.41 180.20 766.99 173.25 767.14 166.93 C 767.12 160.77 765.99 154.01 761.56 149.38 C 758.02 145.46 752.22 144.04 747.16 145.20 Z"></path><path fill="#607b86" opacity="1.00" d=" M 864.24 213.66 C 866.07 213.67 867.91 213.67 869.75 213.68 C 869.77 215.76 869.79 217.85 869.81 219.94 C 867.93 219.96 866.06 219.97 864.20 219.98 C 864.20 217.87 864.21 215.76 864.24 213.66 Z"></path><path fill="#607b86" opacity="1.00" d=" M 373.69 213.68 C 375.56 213.68 377.44 213.67 379.32 213.67 C 379.32 215.74 379.33 217.83 379.34 219.91 C 377.42 219.93 375.51 219.94 373.61 219.95 C 373.64 217.86 373.66 215.77 373.69 213.68 Z"></path><path fill="#607b86" opacity="1.00" d=" M 556.35 217.96 C 557.93 216.58 559.90 215.76 561.74 214.78 C 561.81 218.49 561.81 222.19 561.72 225.90 C 563.60 225.95 565.48 226.01 567.37 226.08 C 567.37 227.54 567.38 229.01 567.41 230.49 C 565.52 230.52 563.63 230.55 561.76 230.59 C 562.07 238.25 561.28 245.95 562.24 253.57 C 564.01 253.81 565.78 254.03 567.56 254.26 C 567.69 255.78 567.82 257.30 567.96 258.83 C 564.76 259.15 560.97 259.97 558.29 257.65 C 556.18 256.16 556.28 253.30 556.19 251.00 C 556.19 244.18 556.22 237.37 556.21 230.56 C 554.83 230.56 553.46 230.57 552.10 230.59 C 552.02 229.08 551.94 227.58 551.87 226.07 C 553.32 226.01 554.77 225.95 556.23 225.89 C 556.21 223.25 556.05 220.59 556.35 217.96 Z"></path><path fill="#607b86" opacity="1.00" d=" M 461.22 226.08 C 466.12 224.64 471.76 225.04 476.04 227.98 C 478.21 229.45 478.68 232.24 479.64 234.49 C 477.78 234.75 475.93 234.99 474.09 235.24 C 472.54 229.00 464.99 229.09 460.30 231.49 C 460.41 233.25 459.34 235.66 461.26 236.77 C 466.60 239.45 473.14 239.35 478.02 243.03 C 482.51 246.77 480.77 254.30 476.19 257.20 C 471.32 260.22 465.03 260.20 459.78 258.21 C 456.14 256.57 454.20 252.83 453.10 249.20 C 454.90 248.79 456.70 248.43 458.52 248.09 C 459.71 250.32 460.56 253.22 463.24 254.09 C 466.76 255.51 471.64 255.35 474.11 252.11 C 475.37 250.36 474.41 248.24 473.50 246.59 C 468.63 245.10 463.54 244.26 458.87 242.16 C 455.49 240.69 453.68 236.63 454.47 233.09 C 454.99 229.62 457.98 227.03 461.22 226.08 Z"></path><path fill="#607b86" opacity="1.00" d=" M 641.28 232.22 C 645.80 224.23 658.26 222.90 664.55 229.50 C 668.40 233.19 668.92 238.79 669.10 243.82 C 660.88 243.79 652.65 243.76 644.43 243.75 C 644.79 248.40 647.13 253.56 652.11 254.66 C 656.86 255.96 661.63 252.88 662.96 248.25 C 664.95 248.41 666.94 248.62 668.94 248.84 C 667.56 252.21 665.92 255.86 662.50 257.60 C 655.57 261.31 645.35 259.90 641.20 252.73 C 637.81 246.50 637.79 238.41 641.28 232.22 M 648.11 232.06 C 646.08 233.89 645.37 236.64 644.63 239.17 C 650.80 239.22 656.98 239.20 663.16 239.21 C 662.46 236.69 662.05 233.80 659.93 232.02 C 656.65 229.19 651.41 229.36 648.11 232.06 Z"></path><path fill="#607b86" opacity="1.00" d=" M 748.42 230.66 C 752.61 223.97 764.05 223.12 767.87 230.62 C 770.66 226.94 775.21 224.48 779.91 225.44 C 784.27 225.77 787.61 229.67 787.80 233.96 C 788.24 242.22 787.97 250.51 787.93 258.78 C 786.09 258.78 784.26 258.77 782.43 258.78 C 782.36 252.18 782.48 245.58 782.44 238.98 C 782.26 236.43 782.35 233.52 780.59 231.46 C 776.23 228.35 769.13 231.47 768.86 236.98 C 768.26 244.23 768.71 251.52 768.55 258.79 C 766.70 258.78 764.86 258.78 763.02 258.78 C 762.89 251.86 763.04 244.94 762.99 238.02 C 762.90 235.50 762.82 232.26 760.30 230.88 C 755.88 228.85 749.91 231.83 749.63 236.91 C 748.87 244.19 749.58 251.54 749.27 258.84 C 747.38 258.79 745.50 258.72 743.64 258.65 C 743.70 247.79 743.75 236.93 743.59 226.07 C 745.27 226.02 746.95 225.96 748.64 225.92 C 748.56 227.49 748.50 229.07 748.42 230.66 Z"></path><path fill="#607b86" opacity="1.00" d=" M 276.59 227.57 C 281.83 224.40 288.94 224.58 294.14 227.75 C 296.59 229.14 297.20 232.06 298.02 234.52 C 296.24 234.76 294.47 235.00 292.69 235.24 C 291.67 233.44 290.84 231.10 288.63 230.49 C 286.09 229.77 283.31 229.83 280.80 230.64 C 278.16 231.34 277.22 235.80 280.04 236.90 C 284.97 239.35 290.80 239.49 295.56 242.34 C 300.56 245.35 299.96 253.31 295.51 256.56 C 290.56 260.31 283.49 260.32 277.91 258.05 C 274.23 256.44 272.70 252.49 271.78 248.87 C 273.60 248.65 275.42 248.41 277.24 248.20 C 278.14 251.07 279.86 254.12 283.13 254.61 C 287.37 255.89 294.72 253.81 293.04 248.07 C 288.71 244.15 281.95 245.00 277.04 241.96 C 271.60 239.36 271.53 230.61 276.59 227.57 Z"></path><path fill="#607b86" opacity="1.00" d=" M 373.62 226.02 C 375.52 226.01 377.42 226.00 379.33 226.01 C 379.30 236.93 379.32 247.85 379.32 258.78 C 377.43 258.78 375.54 258.78 373.67 258.79 C 373.65 247.86 373.69 236.94 373.62 226.02 Z"></path><path fill="#607b86" opacity="1.00" d=" M 864.20 226.18 C 866.01 226.06 867.83 225.94 869.67 225.82 C 869.92 236.80 869.76 247.79 869.75 258.77 C 867.91 258.77 866.09 258.78 864.27 258.78 C 864.11 247.92 864.25 237.05 864.20 226.18 Z"></path></g></svg> 